<svg width="41" height="36" viewBox="0 0 41 36" fill="none" xmlns="http://www.w3.org/2000/svg">
<g id="logo">
<path id="Rectangle 8" d="M0 4C0 1.79086 1.79086 0 4 0H31.7867C33.9958 0 35.7867 1.79086 35.7867 4V8C35.7867 21.2548 25.0415 32 11.7867 32H4C1.79087 32 0 30.2091 0 28V4Z" fill="#F59E0B"/>
<path id="Rectangle 9" d="M4.47339 8C4.47339 5.79086 6.26425 4 8.47339 4H36.26C38.4692 4 40.2601 5.79086 40.2601 8V12C40.2601 25.2548 29.5149 36 16.2601 36H8.47339C6.26425 36 4.47339 34.2091 4.47339 32V8Z" fill="#4BE4C9"/>
</g>
</svg>
